<?xml version="1.0" ?><!DOCTYPE svg  PUBLIC '-//W3C//DTD SVG 1.1//EN'  'http://www.w3.org/Graphics/SVG/1.1/DTD/svg11.dtd'><svg height="512px" id="形状_1_1_" style="enable-background:new 0 0 512 512;" version="1.1" viewBox="0 0 512 512" width="512px" xml:space="preserve" xmlns="http://www.w3.org/2000/svg" xmlns:xlink="http://www.w3.org/1999/xlink"><g id="形状_1"><g><path d="M414.154,163.646l-4.717,13.202h76.573v-13.202H414.154z     M357.63,176.871l-4.654-13.235l-71.095,0.009c-0.021,0,0.023,13.207,0.023,13.227    C281.904,176.887,357.664,176.852,357.63,176.871z M255.998,176.868c-8.678-7.922-18.863-12.096-30.58-13.227l-98.289-0.003    c0,0,0,13.213,0,13.229C127.129,176.881,255.998,176.868,255.998,176.868z M26.001,176.845h89.525v-13.203H26.001V176.845z     M400.662,201.62h85.349v-13.139h-80.722C405.317,188.487,400.662,201.62,400.662,201.62z M281.877,201.636h84.549l-4.632-13.156    h-79.917V201.636z M127.153,201.615h142.589c0-5.093-2.011-8.801-3.709-13.14h-138.88V201.615z M26.001,201.615h89.525v-13.14    H26.001V201.615z M460.701,213.271l-64.085-0.019l-4.685,13.199l68.77-0.029V213.271z M307.086,226.452h68.122l-4.669-13.203    h-63.453V226.452z M270.873,213.247h-40.928v13.205h39.041C270.305,222.49,270.873,217.773,270.873,213.247z M89.434,213.312    h-38.48v13.138h38.48V213.312z M153.055,213.247v13.202h38.414v-13.202H153.055z M460.678,250.719v-13.141h-72.676    c-0.008-0.027-4.306,12.261-4.327,12.253l-4.479-12.25h-72.11v13.138h37.843c0.008-0.019-0.003-10.011-0.003-10.011l3.477,9.992    l71.115,0.019L423,240.71c0,0,0.019,9.99,0.021,10.009H460.678z M263.327,237.572c-0.001,0.002-0.002,0.004-0.003,0.006h0.003    V237.572z M153.052,250.719c0,0.019,99.336,0,99.336,0c4.149-3.395,8.522-8.739,10.936-13.141h-110.27    C153.055,237.602,153.052,250.7,153.052,250.719z M50.954,250.717h38.48v-13.142h-38.48V250.717z M460.678,262.352h-37.656v13.139    h37.656V262.352z M307.086,262.352v13.139c-0.02-0.007,37.851,0.004,37.851,0c0-0.007,0.043-13.139-0.011-13.139H307.086z     M357.189,275.513l53.638-0.022c0.178-0.007,4.417-13.158,4.589-13.139h-62.945C352.474,262.332,357.147,275.492,357.189,275.513z     M264.021,275.49c-3.206-4.717-7.296-9.369-11.822-13.143h-99.15c0,0.014,0.003,13.136,0.003,13.143    C153.052,275.494,264.201,275.483,264.021,275.49z M89.428,262.348h-38.41c0,0,0.008,13.136,0,13.136    c-0.008,0,38.392,0.003,38.41,0.003V262.348z M423.021,300.263h37.653v-13.141h-37.653V300.263z M307.083,300.261h37.843v-13.139    h-37.843V300.261z M365.815,300.266c0,0,36.196,0.113,36.205,0.059c0.011-0.059,4.645-13.214,4.717-13.202h-45.597    C361.062,287.116,365.815,300.266,365.815,300.266z M192.036,300.266c0.035,0,0-13.146,0-13.146h-38.983    c-0.003,0.003,0,13.194,0,13.142C153.052,300.249,191.999,300.266,192.036,300.266z M230.635,287.119v13.202h41.306    c-0.376-4.527-0.564-9.241-2.449-13.202H230.635z M51.018,300.258h38.41v-13.139h-38.41V300.258z M423.021,324.53h62.987v-13.145    h-62.987V324.53z M281.875,324.53h63.051v-13.145h-63.051V324.53z M374.316,324.53h19.231l4.447-13.145h-28.293L374.316,324.53z     M115.46,311.394c0.037,0-89.568-0.008-89.463-0.008v13.139h89.463C115.497,324.545,115.419,311.394,115.46,311.394z     M127.148,324.524H264.15l1.182,0.006c3.168-3.524,4.031-8.81,4.973-13.145H127.148V324.524z M383.062,349.33h1.77l4.613-13.171    h-10.878L383.062,349.33z M423.019,349.361h62.99v-13.202h-62.99V349.361z M127.129,349.33l0.019,0.005l96.195,0.026    c12.824-0.186,24.731-4.869,33.409-13.165c-0.371,0-129.623-0.016-129.623-0.016V349.33z M281.875,349.361h63.051v-13.202h-63.051    V349.361z M25.997,336.181c0.024,0-0.024,13.149,0,13.175c0.026,0.027,89.5-0.025,89.463-0.025c-0.041,0,0-13.113,0-13.113    C115.419,336.261,25.972,336.181,25.997,336.181z" style="fill-rule:evenodd;clip-rule:evenodd;fill:#4A80C1;"/></g></g></svg>